<?xml version="1.0" encoding="iso-8859-1"?>
<!-- Generator: Adobe Illustrator 18.1.1, SVG Export Plug-In . SVG Version: 6.00 Build 0)  -->
<svg version="1.1" id="Capa_1" xmlns="http://www.w3.org/2000/svg" xmlns:xlink="http://www.w3.org/1999/xlink" x="0px" y="0px"
	viewBox="0 0 179.006 179.006" style="enable-background:new 0 0 179.006 179.006;" xml:space="preserve" width="25" height="25">
<g>
	<g>
		<path style="fill:#CCD5E1;" d="M10.537,50.098c0,1.754,0,3.509,0,5.263c50.885,33.325,101.789-46.016,152.68-20.204
			c0,30.228,0,60.462,0,90.696c1.748,0.889,3.509,1.903,5.269,3.055c0-31.976,0-63.971,0-95.959
			C115.829-1.528,63.177,84.574,10.537,50.098z"/>
		<path style="fill:#CCD5E1;" d="M21.057,44.925c0,1.754,0,3.509,0,5.263C71.949,69.013,122.852-9.821,173.743,31.541
			c0,30.228,0,60.462,0,90.696c1.754,1.42,3.509,2.995,5.263,4.708c0-31.982,0-63.965,0-95.959
			C126.36-20.633,73.715,64.4,21.057,44.925z"/>
		<g>
			<path style="fill:#CCD5E1;" d="M0,52.055c0,31.988,0,63.971,0,95.965c52.646,51.619,105.291-33.414,157.949-13.939
				c0-31.988,0-63.977,0-95.959C105.291,18.646,52.646,103.674,0,52.055z M78.966,140.591c-19.583,9.893-35.467-4.105-35.467-23.969
				c0-19.315,15.884-37.084,35.467-46.977c19.589-9.81,35.473-0.841,35.473,19.1C114.456,108,98.573,130.788,78.966,140.591z"/>
			<path style="fill:#CCD5E1;" d="M90.189,99.092c-1.707-0.352-4.947,0.012-9.72,0.955c0-5.012,0-10.024,0-15.037
				c2.84-1.247,4.905-1.175,6.2,0.274c0.698,0.788,1.122,1.933,1.259,3.431c1.808-0.883,3.604-1.766,5.406-2.643
				c-0.113-3.443-1.259-5.686-3.449-6.737c-2.184-1.05-5.334-0.698-9.416,0.955c0-1.349,0-2.691,0-4.04
				c-0.979,0.465-1.951,0.925-2.93,1.372c0,1.366,0,2.733,0,4.105c-4.129,1.963-7.345,4.6-9.648,8.049
				c-2.291,3.431-3.437,6.671-3.437,9.798c0,3.497,1.068,5.842,3.192,6.957c2.124,1.122,5.43,1.14,9.893-0.09
				c0,5.597,0,11.212,0,16.821c-3.485,1.331-5.854,1.038-7.142-0.74c-0.734-0.985-1.181-2.858-1.343-5.609
				c-1.826,0.752-3.64,1.474-5.466,2.136c0,3.544,0.585,6.134,1.76,7.763c2.136,3.031,6.2,3.532,12.19,1.134
				c0,1.993,0,3.998,0,5.991c0.979-0.453,1.951-0.913,2.93-1.378c0-1.993,0-3.992,0-5.985c3.717-2.178,6.57-4.427,8.545-6.671
				c3.568-4.052,5.346-8.807,5.346-14.279C94.348,101.843,92.97,99.665,90.189,99.092z M77.539,100.84
				c-2.303,0.615-4.129,0.621-5.495,0.066c-1.366-0.567-2.041-1.88-2.041-3.92c0-1.689,0.579-3.538,1.724-5.579
				c1.152-2.041,3.097-3.717,5.812-5.078C77.539,91.174,77.539,96.007,77.539,100.84z M87.749,114.671
				c-1.337,3.061-3.765,5.543-7.28,7.381c0-5.412,0-10.812,0-16.236c2.572-0.513,4.392-0.674,5.49-0.424
				c1.886,0.412,2.846,1.903,2.846,4.481C88.805,111.497,88.447,113.096,87.749,114.671z"/>
		</g>
	</g>
</g>
<g>
</g>
<g>
</g>
<g>
</g>
<g>
</g>
<g>
</g>
<g>
</g>
<g>
</g>
<g>
</g>
<g>
</g>
<g>
</g>
<g>
</g>
<g>
</g>
<g>
</g>
<g>
</g>
<g>
</g>
</svg>
